<svg width="14" height="14" viewBox="0 0 14 14" fill="none" xmlns="http://www.w3.org/2000/svg">
<g clip-path="url(#clip0_5_609)">
<path d="M11.6505 2.37695C10.4262 1.15265 8.76565 0.464844 7.03423 0.464844C5.30281 0.464844 3.6423 1.15265 2.418 2.37695C1.1937 3.60125 0.505898 5.26175 0.505898 6.99318C0.505898 8.7246 1.1937 10.3851 2.418 11.6094C3.6423 12.8337 5.30281 13.5215 7.03423 13.5215C8.76565 13.5215 10.4262 12.8337 11.6505 11.6094C12.8748 10.3851 13.5626 8.7246 13.5626 6.99318C13.5626 5.26175 12.8748 3.60125 11.6505 2.37695ZM7.03423 12.6465C3.91704 12.6465 1.38091 10.1104 1.38091 6.99318C1.38091 3.87593 3.91699 1.33985 7.03423 1.33985C10.1515 1.33985 12.6875 3.87593 12.6875 6.99318C12.6875 10.1104 10.1515 12.6465 7.03423 12.6465Z" fill="#F96900"/>
<path d="M6.0503 8.36192L4.04292 6.35456L3.42421 6.97327L6.0503 9.59936L10.6304 5.01931L10.0116 4.4006L6.0503 8.36192Z" fill="#F96900"/>
</g>
<defs>
<clipPath id="clip0_5_609">
<rect width="14" height="14" fill="white"/>
</clipPath>
</defs>
</svg>
